<?xml version="1.0" encoding="UTF-8"?>
<svg width="1518px" height="119px" viewBox="0 0 1518 119" version="1.1" xmlns="http://www.w3.org/2000/svg" xmlns:xlink="http://www.w3.org/1999/xlink">
    <!-- Generator: Sketch 52.6 (67491) - http://www.bohemiancoding.com/sketch -->
    <title>Artboard Copy 3</title>
    <desc>Created with Sketch.</desc>
    <defs>
        <path d="M1367.69934,27.4499454 L1500.84483,5.28358245 L1501.09117,6.76321755 L1370.12634,28.5665382 L1473.60004,76.171816 L1300.66435,40.1307268 L1256.31977,47.5133117 L1256.26372,47.5499 L1256.12494,47.5499 L1255.99763,47.5792306 L1255.91434,47.5499 L1171.52047,47.5499 L1140.3646,7.96640324 L1140.3646,47.3591442 L1074.01828,67.1116697 L1052.63466,8.03854894 L1031.75383,65.7331307 L1034.97808,67.2571293 L1030.88586,66.8792063 L961.720469,86.6827082 L961.577425,86.8083442 L961.393869,86.7762208 L961.053636,86.8736366 L960.923426,86.6938902 L745.920746,49.0668827 L745.84883,49.0862863 L745.821601,49.0761476 L653.199814,66.9768582 L638.855628,27.3995377 L625.758286,24.7483411 L610.248293,67.4024138 L609.660826,66.9222869 L502.621028,74.8248278 L502.502502,74.8873322 L502.342505,74.8453906 L501.157617,74.9328687 L501.331603,74.5803924 L392.653109,46.0913752 L467.803291,5.0849 L535.995733,5.0849 L537.521233,4.65333421 L537.205557,5.2928557 L605.16948,19.050369 L631.231682,5.30653263 L631.838754,3.63702331 L632.424388,5.25285815 L745.92197,47.5129137 L902.966185,5.14093979 L903.463933,4.81782508 L903.768858,5.23875354 L947.400348,25.8619551 L1052.08491,5.14989288 L1052.63454,3.63125106 L1053.16053,5.08433765 L1138.8646,5.05089254 L1138.8646,3.63539676 L1140.03477,5.1220932 L1275.32319,33.3172111 L1318.43864,5.17286259 L1318.8484,5.80059625 L1319.16187,5.1192506 L1357.35164,22.6892695 L1432.86202,5.29264548 L1433.19878,6.75435452 L1359.58102,23.714943 L1367.69934,27.4499454 Z M1296.6081,39.2853747 L1294.18721,38.7808418 L1279.98534,42.0527693 L1296.6081,39.2853747 Z M1300.69525,38.6049374 L1365.06407,27.8886704 L1357.18966,24.2658819 L1297.67911,37.9763517 L1300.69525,38.6049374 Z M1304.75149,39.4502895 L1460.95076,72.003384 L1367.49107,29.0052632 L1304.75149,39.4502895 Z M1255.97599,46.0499 L1255.95439,46.0499 L1255.87302,46.0686455 L1255.91978,46.0712702 L1255.91783,46.0595824 L1255.97599,46.0499 Z M1259.98376,45.1215847 L1290.6792,38.0497473 L1275.62402,34.9121349 L1259.98376,45.1215847 Z M1110.15237,32.094744 L1137.70151,6.55134654 L1055.98439,6.58323578 L1110.15237,32.094744 Z M1111.6154,32.7837876 L1138.8646,45.6173548 L1138.8646,7.5184881 L1111.6154,32.7837876 Z M1141.80051,7.36546756 L1172.24873,46.0499 L1251.65471,46.0499 L1141.80051,7.36546756 Z M1255.94127,45.969095 L1273.54396,34.478635 L1150.47708,8.83057863 L1255.94127,45.969095 Z M1294.1711,37.2452572 L1354.96028,23.2402084 L1318.91176,6.65531805 L1277.40325,33.750711 L1294.1711,37.2452572 Z M1077.34963,64.554799 L1137.5185,46.6414154 L1110.42953,33.8833149 L1077.34963,64.554799 Z M1074.80244,64.8709866 L1108.9665,33.1942713 L1053.95779,7.28680206 L1074.80244,64.8709866 Z M633.095002,7.10316254 L639.978886,26.0966204 L736.673466,45.6699018 L633.095002,7.10316254 Z M751.543174,47.5499 L837.636513,47.5499 L898.870591,7.79960748 L751.543174,47.5499 Z M905.596549,7.76176576 L922.305253,30.8270727 L944.925967,26.3515165 L905.596549,7.76176576 Z M923.274072,32.164467 L941.339825,57.1030944 L988.198562,61.4305785 L999.024502,51.9221531 L947.206402,27.4294048 L923.274072,32.164467 Z M942.5093,58.7174804 L961.476532,84.9005426 L986.646632,62.7936382 L942.5093,58.7174804 Z M1000.2526,50.8435142 L1050.08654,7.07435111 L949.680783,26.9398434 L1000.2526,50.8435142 Z M837.82709,49.0499 L754.523585,49.0499 L959.660146,84.950012 L940.524279,58.5341604 L837.82709,49.0499 Z M841.534742,46.8076892 L920.685222,31.1475991 L903.085267,6.85197492 L841.534742,46.8076892 Z M921.654042,32.4849934 L843.088277,48.0293965 L939.354804,56.9197743 L921.654042,32.4849934 Z M1030.39164,65.0892672 L1050.93583,8.32483491 L1001.73037,51.542007 L1030.39164,65.0892672 Z M1026.76548,66.4986825 L988.70341,62.9835852 L964.356159,84.3677811 L1026.76548,66.4986825 Z M990.25534,61.6205255 L1026.65472,64.9820707 L1000.50227,52.6206459 L990.25534,61.6205255 Z M837.572116,47.5917032 L837.783401,47.5499 L837.636513,47.5499 L837.572116,47.5917032 Z M626.276591,23.32295 L638.257085,25.748087 L631.836446,8.03277669 L626.276591,23.32295 Z M742.021987,48.2827292 L640.577428,27.7480687 L654.173386,65.2609418 L742.021987,48.2827292 Z M603.07247,20.1562217 L538.920985,7.17051819 L573.737835,35.6257673 L603.07247,20.1562217 Z M624.271624,24.4474072 L605.396207,20.6265983 L574.998993,36.6564917 L609.560907,64.9033862 L624.271624,24.4474072 Z M624.789929,23.0220144 L630.468758,7.40465184 L607.493212,19.5207478 L624.789929,23.0220144 Z M607.972955,65.5428168 L573.558272,37.4162524 L505.937496,73.0758971 L607.972955,65.5428168 Z M536.356887,7.0121615 L504.107818,72.3449799 L572.297113,36.3855279 L536.356887,7.0121615 Z M502.009342,73.2073732 L534.682567,7.01526579 L397.524072,45.8175691 L502.009342,73.2073732 Z M400.886709,43.3074053 L530.693528,6.5849 L468.185909,6.5849 L400.886709,43.3074053 Z M36.1149763,7.68542474 L111.182426,45.0949 L218.759424,45.0949 L36.1149763,7.68542474 Z M233.558376,46.5949 L110.829374,46.5949 L25.1888237,3.91637526 L233.558376,46.5949 Z" id="path-1"></path>
        <filter x="-0.6%" y="-7.5%" width="100.9%" height="113.6%" filterUnits="objectBoundingBox" id="filter-2">
            <feMorphology radius="0.25" operator="dilate" in="SourceAlpha" result="shadowSpreadOuter1"></feMorphology>
            <feOffset dx="0" dy="0" in="shadowSpreadOuter1" result="shadowOffsetOuter1"></feOffset>
            <feGaussianBlur stdDeviation="1.5" in="shadowOffsetOuter1" result="shadowBlurOuter1"></feGaussianBlur>
            <feColorMatrix values="0 0 0 0 1   0 0 0 0 1   0 0 0 0 1  0 0 0 1 0" type="matrix" in="shadowBlurOuter1"></feColorMatrix>
        </filter>
        <circle id="path-3" cx="226" cy="46" r="4"></circle>
        <filter x="-262.5%" y="-262.5%" width="625.0%" height="625.0%" filterUnits="objectBoundingBox" id="filter-4">
            <feMorphology radius="3.5" operator="dilate" in="SourceAlpha" result="shadowSpreadOuter1"></feMorphology>
            <feOffset dx="0" dy="0" in="shadowSpreadOuter1" result="shadowOffsetOuter1"></feOffset>
            <feGaussianBlur stdDeviation="3.5" in="shadowOffsetOuter1" result="shadowBlurOuter1"></feGaussianBlur>
            <feColorMatrix values="0 0 0 0 1   0 0 0 0 1   0 0 0 0 1  0 0 0 1 0" type="matrix" in="shadowBlurOuter1"></feColorMatrix>
        </filter>
        <circle id="path-5" cx="395" cy="46" r="4"></circle>
        <filter x="-262.5%" y="-262.5%" width="625.0%" height="625.0%" filterUnits="objectBoundingBox" id="filter-6">
            <feMorphology radius="3.5" operator="dilate" in="SourceAlpha" result="shadowSpreadOuter1"></feMorphology>
            <feOffset dx="0" dy="0" in="shadowSpreadOuter1" result="shadowOffsetOuter1"></feOffset>
            <feGaussianBlur stdDeviation="3.5" in="shadowOffsetOuter1" result="shadowBlurOuter1"></feGaussianBlur>
            <feColorMatrix values="0 0 0 0 1   0 0 0 0 1   0 0 0 0 1  0 0 0 1 0" type="matrix" in="shadowBlurOuter1"></feColorMatrix>
        </filter>
        <circle id="path-7" cx="468" cy="6" r="4"></circle>
        <filter x="-262.5%" y="-262.5%" width="625.0%" height="625.0%" filterUnits="objectBoundingBox" id="filter-8">
            <feMorphology radius="3.5" operator="dilate" in="SourceAlpha" result="shadowSpreadOuter1"></feMorphology>
            <feOffset dx="0" dy="0" in="shadowSpreadOuter1" result="shadowOffsetOuter1"></feOffset>
            <feGaussianBlur stdDeviation="3.5" in="shadowOffsetOuter1" result="shadowBlurOuter1"></feGaussianBlur>
            <feColorMatrix values="0 0 0 0 1   0 0 0 0 1   0 0 0 0 1  0 0 0 1 0" type="matrix" in="shadowBlurOuter1"></feColorMatrix>
        </filter>
        <circle id="path-9" cx="536" cy="6" r="4"></circle>
        <filter x="-262.5%" y="-262.5%" width="625.0%" height="625.0%" filterUnits="objectBoundingBox" id="filter-10">
            <feMorphology radius="3.5" operator="dilate" in="SourceAlpha" result="shadowSpreadOuter1"></feMorphology>
            <feOffset dx="0" dy="0" in="shadowSpreadOuter1" result="shadowOffsetOuter1"></feOffset>
            <feGaussianBlur stdDeviation="3.5" in="shadowOffsetOuter1" result="shadowBlurOuter1"></feGaussianBlur>
            <feColorMatrix values="0 0 0 0 1   0 0 0 0 1   0 0 0 0 1  0 0 0 1 0" type="matrix" in="shadowBlurOuter1"></feColorMatrix>
        </filter>
        <circle id="path-11" cx="502" cy="75" r="4"></circle>
        <filter x="-262.5%" y="-262.5%" width="625.0%" height="625.0%" filterUnits="objectBoundingBox" id="filter-12">
            <feMorphology radius="3.5" operator="dilate" in="SourceAlpha" result="shadowSpreadOuter1"></feMorphology>
            <feOffset dx="0" dy="0" in="shadowSpreadOuter1" result="shadowOffsetOuter1"></feOffset>
            <feGaussianBlur stdDeviation="3.5" in="shadowOffsetOuter1" result="shadowBlurOuter1"></feGaussianBlur>
            <feColorMatrix values="0 0 0 0 1   0 0 0 0 1   0 0 0 0 1  0 0 0 1 0" type="matrix" in="shadowBlurOuter1"></feColorMatrix>
        </filter>
        <circle id="path-13" cx="609" cy="66" r="4"></circle>
        <filter x="-262.5%" y="-262.5%" width="625.0%" height="625.0%" filterUnits="objectBoundingBox" id="filter-14">
            <feMorphology radius="3.5" operator="dilate" in="SourceAlpha" result="shadowSpreadOuter1"></feMorphology>
            <feOffset dx="0" dy="0" in="shadowSpreadOuter1" result="shadowOffsetOuter1"></feOffset>
            <feGaussianBlur stdDeviation="3.5" in="shadowOffsetOuter1" result="shadowBlurOuter1"></feGaussianBlur>
            <feColorMatrix values="0 0 0 0 1   0 0 0 0 1   0 0 0 0 1  0 0 0 1 0" type="matrix" in="shadowBlurOuter1"></feColorMatrix>
        </filter>
        <circle id="path-15" cx="632" cy="4" r="4"></circle>
        <filter x="-262.5%" y="-262.5%" width="625.0%" height="625.0%" filterUnits="objectBoundingBox" id="filter-16">
            <feMorphology radius="3.5" operator="dilate" in="SourceAlpha" result="shadowSpreadOuter1"></feMorphology>
            <feOffset dx="0" dy="0" in="shadowSpreadOuter1" result="shadowOffsetOuter1"></feOffset>
            <feGaussianBlur stdDeviation="3.5" in="shadowOffsetOuter1" result="shadowBlurOuter1"></feGaussianBlur>
            <feColorMatrix values="0 0 0 0 1   0 0 0 0 1   0 0 0 0 1  0 0 0 1 0" type="matrix" in="shadowBlurOuter1"></feColorMatrix>
        </filter>
        <circle id="path-17" cx="655" cy="66" r="4"></circle>
        <filter x="-262.5%" y="-262.5%" width="625.0%" height="625.0%" filterUnits="objectBoundingBox" id="filter-18">
            <feMorphology radius="3.5" operator="dilate" in="SourceAlpha" result="shadowSpreadOuter1"></feMorphology>
            <feOffset dx="0" dy="0" in="shadowSpreadOuter1" result="shadowOffsetOuter1"></feOffset>
            <feGaussianBlur stdDeviation="3.5" in="shadowOffsetOuter1" result="shadowBlurOuter1"></feGaussianBlur>
            <feColorMatrix values="0 0 0 0 1   0 0 0 0 1   0 0 0 0 1  0 0 0 1 0" type="matrix" in="shadowBlurOuter1"></feColorMatrix>
        </filter>
        <circle id="path-19" cx="746" cy="48" r="4"></circle>
        <filter x="-262.5%" y="-262.5%" width="625.0%" height="625.0%" filterUnits="objectBoundingBox" id="filter-20">
            <feMorphology radius="3.5" operator="dilate" in="SourceAlpha" result="shadowSpreadOuter1"></feMorphology>
            <feOffset dx="0" dy="0" in="shadowSpreadOuter1" result="shadowOffsetOuter1"></feOffset>
            <feGaussianBlur stdDeviation="3.5" in="shadowOffsetOuter1" result="shadowBlurOuter1"></feGaussianBlur>
            <feColorMatrix values="0 0 0 0 1   0 0 0 0 1   0 0 0 0 1  0 0 0 1 0" type="matrix" in="shadowBlurOuter1"></feColorMatrix>
        </filter>
        <circle id="path-21" cx="838" cy="48" r="4"></circle>
        <filter x="-262.5%" y="-262.5%" width="625.0%" height="625.0%" filterUnits="objectBoundingBox" id="filter-22">
            <feMorphology radius="3.5" operator="dilate" in="SourceAlpha" result="shadowSpreadOuter1"></feMorphology>
            <feOffset dx="0" dy="0" in="shadowSpreadOuter1" result="shadowOffsetOuter1"></feOffset>
            <feGaussianBlur stdDeviation="3.5" in="shadowOffsetOuter1" result="shadowBlurOuter1"></feGaussianBlur>
            <feColorMatrix values="0 0 0 0 1   0 0 0 0 1   0 0 0 0 1  0 0 0 1 0" type="matrix" in="shadowBlurOuter1"></feColorMatrix>
        </filter>
        <circle id="path-23" cx="904" cy="4" r="4"></circle>
        <filter x="-262.5%" y="-262.5%" width="625.0%" height="625.0%" filterUnits="objectBoundingBox" id="filter-24">
            <feMorphology radius="3.5" operator="dilate" in="SourceAlpha" result="shadowSpreadOuter1"></feMorphology>
            <feOffset dx="0" dy="0" in="shadowSpreadOuter1" result="shadowOffsetOuter1"></feOffset>
            <feGaussianBlur stdDeviation="3.5" in="shadowOffsetOuter1" result="shadowBlurOuter1"></feGaussianBlur>
            <feColorMatrix values="0 0 0 0 1   0 0 0 0 1   0 0 0 0 1  0 0 0 1 0" type="matrix" in="shadowBlurOuter1"></feColorMatrix>
        </filter>
        <circle id="path-25" cx="961" cy="87" r="4"></circle>
        <filter x="-262.5%" y="-262.5%" width="625.0%" height="625.0%" filterUnits="objectBoundingBox" id="filter-26">
            <feMorphology radius="3.5" operator="dilate" in="SourceAlpha" result="shadowSpreadOuter1"></feMorphology>
            <feOffset dx="0" dy="0" in="shadowSpreadOuter1" result="shadowOffsetOuter1"></feOffset>
            <feGaussianBlur stdDeviation="3.5" in="shadowOffsetOuter1" result="shadowBlurOuter1"></feGaussianBlur>
            <feColorMatrix values="0 0 0 0 1   0 0 0 0 1   0 0 0 0 1  0 0 0 1 0" type="matrix" in="shadowBlurOuter1"></feColorMatrix>
        </filter>
        <circle id="path-27" cx="1053" cy="5" r="4"></circle>
        <filter x="-262.5%" y="-262.5%" width="625.0%" height="625.0%" filterUnits="objectBoundingBox" id="filter-28">
            <feMorphology radius="3.5" operator="dilate" in="SourceAlpha" result="shadowSpreadOuter1"></feMorphology>
            <feOffset dx="0" dy="0" in="shadowSpreadOuter1" result="shadowOffsetOuter1"></feOffset>
            <feGaussianBlur stdDeviation="3.5" in="shadowOffsetOuter1" result="shadowBlurOuter1"></feGaussianBlur>
            <feColorMatrix values="0 0 0 0 1   0 0 0 0 1   0 0 0 0 1  0 0 0 1 0" type="matrix" in="shadowBlurOuter1"></feColorMatrix>
        </filter>
        <circle id="path-29" cx="1030" cy="66" r="4"></circle>
        <filter x="-262.5%" y="-262.5%" width="625.0%" height="625.0%" filterUnits="objectBoundingBox" id="filter-30">
            <feMorphology radius="3.5" operator="dilate" in="SourceAlpha" result="shadowSpreadOuter1"></feMorphology>
            <feOffset dx="0" dy="0" in="shadowSpreadOuter1" result="shadowOffsetOuter1"></feOffset>
            <feGaussianBlur stdDeviation="3.5" in="shadowOffsetOuter1" result="shadowBlurOuter1"></feGaussianBlur>
            <feColorMatrix values="0 0 0 0 1   0 0 0 0 1   0 0 0 0 1  0 0 0 1 0" type="matrix" in="shadowBlurOuter1"></feColorMatrix>
        </filter>
        <circle id="path-31" cx="1076" cy="66" r="4"></circle>
        <filter x="-262.5%" y="-262.5%" width="625.0%" height="625.0%" filterUnits="objectBoundingBox" id="filter-32">
            <feMorphology radius="3.5" operator="dilate" in="SourceAlpha" result="shadowSpreadOuter1"></feMorphology>
            <feOffset dx="0" dy="0" in="shadowSpreadOuter1" result="shadowOffsetOuter1"></feOffset>
            <feGaussianBlur stdDeviation="3.5" in="shadowOffsetOuter1" result="shadowBlurOuter1"></feGaussianBlur>
            <feColorMatrix values="0 0 0 0 1   0 0 0 0 1   0 0 0 0 1  0 0 0 1 0" type="matrix" in="shadowBlurOuter1"></feColorMatrix>
        </filter>
        <circle id="path-33" cx="1140" cy="47" r="4"></circle>
        <filter x="-262.5%" y="-262.5%" width="625.0%" height="625.0%" filterUnits="objectBoundingBox" id="filter-34">
            <feMorphology radius="3.5" operator="dilate" in="SourceAlpha" result="shadowSpreadOuter1"></feMorphology>
            <feOffset dx="0" dy="0" in="shadowSpreadOuter1" result="shadowOffsetOuter1"></feOffset>
            <feGaussianBlur stdDeviation="3.5" in="shadowOffsetOuter1" result="shadowBlurOuter1"></feGaussianBlur>
            <feColorMatrix values="0 0 0 0 1   0 0 0 0 1   0 0 0 0 1  0 0 0 1 0" type="matrix" in="shadowBlurOuter1"></feColorMatrix>
        </filter>
        <circle id="path-35" cx="1140" cy="4" r="4"></circle>
        <filter x="-262.5%" y="-262.5%" width="625.0%" height="625.0%" filterUnits="objectBoundingBox" id="filter-36">
            <feMorphology radius="3.5" operator="dilate" in="SourceAlpha" result="shadowSpreadOuter1"></feMorphology>
            <feOffset dx="0" dy="0" in="shadowSpreadOuter1" result="shadowOffsetOuter1"></feOffset>
            <feGaussianBlur stdDeviation="3.5" in="shadowOffsetOuter1" result="shadowBlurOuter1"></feGaussianBlur>
            <feColorMatrix values="0 0 0 0 1   0 0 0 0 1   0 0 0 0 1  0 0 0 1 0" type="matrix" in="shadowBlurOuter1"></feColorMatrix>
        </filter>
        <circle id="path-37" cx="1172" cy="47" r="4"></circle>
        <filter x="-262.5%" y="-262.5%" width="625.0%" height="625.0%" filterUnits="objectBoundingBox" id="filter-38">
            <feMorphology radius="3.5" operator="dilate" in="SourceAlpha" result="shadowSpreadOuter1"></feMorphology>
            <feOffset dx="0" dy="0" in="shadowSpreadOuter1" result="shadowOffsetOuter1"></feOffset>
            <feGaussianBlur stdDeviation="3.5" in="shadowOffsetOuter1" result="shadowBlurOuter1"></feGaussianBlur>
            <feColorMatrix values="0 0 0 0 1   0 0 0 0 1   0 0 0 0 1  0 0 0 1 0" type="matrix" in="shadowBlurOuter1"></feColorMatrix>
        </filter>
        <circle id="path-39" cx="1256" cy="47" r="4"></circle>
        <filter x="-262.5%" y="-262.5%" width="625.0%" height="625.0%" filterUnits="objectBoundingBox" id="filter-40">
            <feMorphology radius="3.5" operator="dilate" in="SourceAlpha" result="shadowSpreadOuter1"></feMorphology>
            <feOffset dx="0" dy="0" in="shadowSpreadOuter1" result="shadowOffsetOuter1"></feOffset>
            <feGaussianBlur stdDeviation="3.5" in="shadowOffsetOuter1" result="shadowBlurOuter1"></feGaussianBlur>
            <feColorMatrix values="0 0 0 0 1   0 0 0 0 1   0 0 0 0 1  0 0 0 1 0" type="matrix" in="shadowBlurOuter1"></feColorMatrix>
        </filter>
        <circle id="path-41" cx="1319" cy="5" r="4"></circle>
        <filter x="-262.5%" y="-262.5%" width="625.0%" height="625.0%" filterUnits="objectBoundingBox" id="filter-42">
            <feMorphology radius="3.5" operator="dilate" in="SourceAlpha" result="shadowSpreadOuter1"></feMorphology>
            <feOffset dx="0" dy="0" in="shadowSpreadOuter1" result="shadowOffsetOuter1"></feOffset>
            <feGaussianBlur stdDeviation="3.5" in="shadowOffsetOuter1" result="shadowBlurOuter1"></feGaussianBlur>
            <feColorMatrix values="0 0 0 0 1   0 0 0 0 1   0 0 0 0 1  0 0 0 1 0" type="matrix" in="shadowBlurOuter1"></feColorMatrix>
        </filter>
        <circle id="path-43" cx="1433" cy="5" r="4"></circle>
        <filter x="-262.5%" y="-262.5%" width="625.0%" height="625.0%" filterUnits="objectBoundingBox" id="filter-44">
            <feMorphology radius="3.5" operator="dilate" in="SourceAlpha" result="shadowSpreadOuter1"></feMorphology>
            <feOffset dx="0" dy="0" in="shadowSpreadOuter1" result="shadowOffsetOuter1"></feOffset>
            <feGaussianBlur stdDeviation="3.5" in="shadowOffsetOuter1" result="shadowBlurOuter1"></feGaussianBlur>
            <feColorMatrix values="0 0 0 0 1   0 0 0 0 1   0 0 0 0 1  0 0 0 1 0" type="matrix" in="shadowBlurOuter1"></feColorMatrix>
        </filter>
        <circle id="path-45" cx="1500" cy="5" r="4"></circle>
        <filter x="-262.5%" y="-262.5%" width="625.0%" height="625.0%" filterUnits="objectBoundingBox" id="filter-46">
            <feMorphology radius="3.5" operator="dilate" in="SourceAlpha" result="shadowSpreadOuter1"></feMorphology>
            <feOffset dx="0" dy="0" in="shadowSpreadOuter1" result="shadowOffsetOuter1"></feOffset>
            <feGaussianBlur stdDeviation="3.5" in="shadowOffsetOuter1" result="shadowBlurOuter1"></feGaussianBlur>
            <feColorMatrix values="0 0 0 0 1   0 0 0 0 1   0 0 0 0 1  0 0 0 1 0" type="matrix" in="shadowBlurOuter1"></feColorMatrix>
        </filter>
        <circle id="path-47" cx="1467" cy="75" r="4"></circle>
        <filter x="-262.5%" y="-262.5%" width="625.0%" height="625.0%" filterUnits="objectBoundingBox" id="filter-48">
            <feMorphology radius="3.5" operator="dilate" in="SourceAlpha" result="shadowSpreadOuter1"></feMorphology>
            <feOffset dx="0" dy="0" in="shadowSpreadOuter1" result="shadowOffsetOuter1"></feOffset>
            <feGaussianBlur stdDeviation="3.5" in="shadowOffsetOuter1" result="shadowBlurOuter1"></feGaussianBlur>
            <feColorMatrix values="0 0 0 0 1   0 0 0 0 1   0 0 0 0 1  0 0 0 1 0" type="matrix" in="shadowBlurOuter1"></feColorMatrix>
        </filter>
        <circle id="path-49" cx="164" cy="46" r="4"></circle>
        <filter x="-262.5%" y="-262.5%" width="625.0%" height="625.0%" filterUnits="objectBoundingBox" id="filter-50">
            <feMorphology radius="3.5" operator="dilate" in="SourceAlpha" result="shadowSpreadOuter1"></feMorphology>
            <feOffset dx="0" dy="0" in="shadowSpreadOuter1" result="shadowOffsetOuter1"></feOffset>
            <feGaussianBlur stdDeviation="3.5" in="shadowOffsetOuter1" result="shadowBlurOuter1"></feGaussianBlur>
            <feColorMatrix values="0 0 0 0 1   0 0 0 0 1   0 0 0 0 1  0 0 0 1 0" type="matrix" in="shadowBlurOuter1"></feColorMatrix>
        </filter>
        <circle id="path-51" cx="111" cy="46" r="4"></circle>
        <filter x="-262.5%" y="-262.5%" width="625.0%" height="625.0%" filterUnits="objectBoundingBox" id="filter-52">
            <feMorphology radius="3.5" operator="dilate" in="SourceAlpha" result="shadowSpreadOuter1"></feMorphology>
            <feOffset dx="0" dy="0" in="shadowSpreadOuter1" result="shadowOffsetOuter1"></feOffset>
            <feGaussianBlur stdDeviation="3.5" in="shadowOffsetOuter1" result="shadowBlurOuter1"></feGaussianBlur>
            <feColorMatrix values="0 0 0 0 1   0 0 0 0 1   0 0 0 0 1  0 0 0 1 0" type="matrix" in="shadowBlurOuter1"></feColorMatrix>
        </filter>
        <circle id="path-53" cx="31" cy="5" r="4"></circle>
        <filter x="-262.5%" y="-262.5%" width="625.0%" height="625.0%" filterUnits="objectBoundingBox" id="filter-54">
            <feMorphology radius="3.5" operator="dilate" in="SourceAlpha" result="shadowSpreadOuter1"></feMorphology>
            <feOffset dx="0" dy="0" in="shadowSpreadOuter1" result="shadowOffsetOuter1"></feOffset>
            <feGaussianBlur stdDeviation="3.5" in="shadowOffsetOuter1" result="shadowBlurOuter1"></feGaussianBlur>
            <feColorMatrix values="0 0 0 0 1   0 0 0 0 1   0 0 0 0 1  0 0 0 1 0" type="matrix" in="shadowBlurOuter1"></feColorMatrix>
        </filter>
    </defs>
    <g id="Artboard-Copy-3" stroke="none" stroke-width="1" fill="none" fill-rule="evenodd">
        <g id="Group-27" transform="translate(0.000000, 14.000000)">
            <g id="Group-18" transform="translate(0.000000, 0.432000)" fill="#FFFFFF">
                <path d="M1196.6758,90.403 L1175.1578,49.244 C1187.6678,47.118 1195.6748,38.485 1195.6748,25.224 C1195.6748,9.711 1184.6658,1.33 1170.1548,1.33 L1136.2508,1.33 L1136.2508,90.403 L1143.0058,90.403 L1143.0058,49.37 L1167.5268,49.37 L1188.7948,90.403 L1196.6758,90.403 Z M1188.9198,25.348 C1188.9198,37.609 1180.6628,43.365 1169.2788,43.365 L1143.0058,43.365 L1143.0058,7.334 L1169.2788,7.334 C1180.6628,7.334 1188.9198,13.09 1188.9198,25.348 Z" id="Fill-1"></path>
                <path d="M667.6177,90.403 L634.8417,1.33 L628.8357,1.33 L596.0587,90.403 L603.3147,90.403 L611.0707,68.76 L652.6047,68.76 L660.3617,90.403 L667.6177,90.403 Z M650.4797,62.757 L613.1967,62.757 L631.8377,10.338 L650.4797,62.757 Z" id="Fill-3"></path>
                <polygon id="Fill-5" points="391.293 90.405 398.048 90.405 398.048 1.33 391.293 1.33"></polygon>
                <polygon id="Fill-7" points="834.426 90.405 841.181 90.405 841.181 1.33 834.426 1.33"></polygon>
                <polygon id="Fill-8" points="1252.663 90.405 1259.418 90.405 1259.418 1.33 1252.663 1.33"></polygon>
                <polygon id="Fill-9" points="539.479 90.403 539.479 1.33 532.725 1.33 502.448 70.011 471.422 1.33 464.667 1.33 464.667 90.403 471.422 90.403 471.422 16.967 498.945 77.893 505.701 77.893 532.725 16.967 532.725 90.403"></polygon>
                <polygon id="Fill-10" points="1504.3447 90.403 1504.3447 1.33 1497.5897 1.33 1467.3137 70.011 1436.2867 1.33 1429.5317 1.33 1429.5317 90.403 1436.2867 90.403 1436.2867 16.967 1463.8107 77.893 1470.5667 77.893 1497.5897 16.967 1497.5897 90.403"></polygon>
                <polygon id="Fill-11" points="964.8262 90.403 964.8262 1.33 958.0712 1.33 958.0712 78.52 906.6542 1.33 899.8962 1.33 899.8962 90.403 906.6542 90.403 906.6542 12.965 958.0712 90.403"></polygon>
                <path d="M1376.5215,61.5046 L1376.5215,1.3296 L1369.7665,1.3296 L1369.7665,60.6286 C1369.7665,75.3916 1360.2575,85.1506 1345.9965,85.1506 C1331.7335,85.1506 1322.2255,75.3916 1322.2255,60.6286 L1322.2255,1.3296 L1315.4705,1.3296 L1315.4705,61.5046 C1315.4705,78.8956 1328.1045,91.1536 1345.9965,91.1536 C1363.8845,91.1536 1376.5215,78.8956 1376.5215,61.5046" id="Fill-12"></path>
                <polygon id="Fill-13" points="0.9194 1.4861 0.9194 7.4591 27.3014 7.4591 27.3014 90.0901 34.0224 90.0901 34.0224 7.4591 60.5284 7.4591 60.5284 1.4861"></polygon>
                <polygon id="Fill-14" points="276.5596 90.0905 276.5596 84.1175 229.5186 84.1175 229.5186 48.4005 269.5906 48.4005 269.5906 42.4275 229.5186 42.4275 229.5186 7.4595 276.5596 7.4595 276.5596 1.4865 222.7986 1.4865 222.7986 90.0905"></polygon>
                <polygon id="Fill-15" points="167.2554 90.0905 167.2554 1.4865 160.5354 1.4865 160.5354 42.4275 114.3654 42.4275 114.3654 1.4865 107.6464 1.4865 107.6464 90.0905 114.3654 90.0905 114.3654 48.4005 160.5354 48.4005 160.5354 90.0905"></polygon>
                <path d="M776.4736,59.3786 L776.4736,44.8666 L745.8226,44.8666 L745.8226,50.8716 L769.7186,50.8716 L769.7186,58.8786 C769.7186,66.5086 768.2156,71.7646 764.3376,76.5166 C759.7076,82.1476 752.8276,85.1486 745.8226,85.1486 C739.4406,85.1486 733.3116,82.7736 728.9316,78.2686 C722.5536,71.8896 722.0526,65.0076 722.0526,45.8656 C722.0526,26.7256 722.5536,19.8436 728.9316,13.4646 C733.4366,8.9606 739.4406,6.5836 745.8226,6.5836 C755.8316,6.5836 761.0856,10.7116 767.8416,17.4686 L772.3446,12.9636 C764.4626,5.0826 757.3326,0.5776 745.8226,0.5776 C737.4416,0.5776 729.4336,3.8326 723.5546,9.7116 C715.4226,17.8446 715.2976,25.7256 715.2976,45.8656 C715.2976,66.0076 715.4226,73.8886 723.5546,82.0226 C729.4336,87.9006 737.4416,91.1546 745.8226,91.1546 C754.8306,91.1546 763.3366,87.4006 769.2166,80.8966 C774.4706,75.2666 776.4736,68.6356 776.4736,59.3786" id="Fill-16"></path>
                <path d="M1088.4131,90.403 L1055.6391,1.33 L1049.6311,1.33 L1016.8551,90.403 L1024.1101,90.403 L1031.8661,68.76 L1073.4001,68.76 L1081.1591,90.403 L1088.4131,90.403 Z M1071.2761,62.757 L1033.9921,62.757 L1052.6331,10.338 L1071.2761,62.757 Z" id="Fill-17"></path>
            </g>
            <g id="Combined-Shape" fill-rule="nonzero">
                <use fill="black" fill-opacity="1" filter="url(#filter-2)" xlink:href="#path-1"></use>
                <use fill="#FFFFFF" xlink:href="#path-1"></use>
            </g>
            <g id="Oval-Copy" fill-rule="nonzero" fill="black" fill-opacity="1">
                <use filter="url(#filter-4)" xlink:href="#path-3"></use>
            </g>
            <g id="Oval-Copy-5" fill-rule="nonzero" fill="black" fill-opacity="1">
                <use filter="url(#filter-6)" xlink:href="#path-5"></use>
            </g>
            <g id="Oval-Copy-6" fill-rule="nonzero" fill="black" fill-opacity="1">
                <use filter="url(#filter-8)" xlink:href="#path-7"></use>
            </g>
            <g id="Oval-Copy-7" fill-rule="nonzero" fill="black" fill-opacity="1">
                <use filter="url(#filter-10)" xlink:href="#path-9"></use>
            </g>
            <g id="Oval-Copy-8" fill-rule="nonzero" fill="black" fill-opacity="1">
                <use filter="url(#filter-12)" xlink:href="#path-11"></use>
            </g>
            <g id="Oval-Copy-9" fill-rule="nonzero" fill="black" fill-opacity="1">
                <use filter="url(#filter-14)" xlink:href="#path-13"></use>
            </g>
            <g id="Oval-Copy-10" fill-rule="nonzero" fill="black" fill-opacity="1">
                <use filter="url(#filter-16)" xlink:href="#path-15"></use>
            </g>
            <g id="Oval-Copy-11" fill-rule="nonzero" fill="black" fill-opacity="1">
                <use filter="url(#filter-18)" xlink:href="#path-17"></use>
            </g>
            <g id="Oval-Copy-12" fill-rule="nonzero" fill="black" fill-opacity="1">
                <use filter="url(#filter-20)" xlink:href="#path-19"></use>
            </g>
            <g id="Oval-Copy-13" fill-rule="nonzero" fill="black" fill-opacity="1">
                <use filter="url(#filter-22)" xlink:href="#path-21"></use>
            </g>
            <g id="Oval-Copy-14" fill-rule="nonzero" fill="black" fill-opacity="1">
                <use filter="url(#filter-24)" xlink:href="#path-23"></use>
            </g>
            <g id="Oval-Copy-15" fill-rule="nonzero" fill="black" fill-opacity="1">
                <use filter="url(#filter-26)" xlink:href="#path-25"></use>
            </g>
            <g id="Oval-Copy-16" fill-rule="nonzero" fill="black" fill-opacity="1">
                <use filter="url(#filter-28)" xlink:href="#path-27"></use>
            </g>
            <g id="Oval-Copy-17" fill-rule="nonzero" fill="black" fill-opacity="1">
                <use filter="url(#filter-30)" xlink:href="#path-29"></use>
            </g>
            <g id="Oval-Copy-18" fill-rule="nonzero" fill="black" fill-opacity="1">
                <use filter="url(#filter-32)" xlink:href="#path-31"></use>
            </g>
            <g id="Oval-Copy-19" fill-rule="nonzero" fill="black" fill-opacity="1">
                <use filter="url(#filter-34)" xlink:href="#path-33"></use>
            </g>
            <g id="Oval-Copy-20" fill-rule="nonzero" fill="black" fill-opacity="1">
                <use filter="url(#filter-36)" xlink:href="#path-35"></use>
            </g>
            <g id="Oval-Copy-21" fill-rule="nonzero" fill="black" fill-opacity="1">
                <use filter="url(#filter-38)" xlink:href="#path-37"></use>
            </g>
            <g id="Oval-Copy-22" fill-rule="nonzero" fill="black" fill-opacity="1">
                <use filter="url(#filter-40)" xlink:href="#path-39"></use>
            </g>
            <g id="Oval-Copy-23" fill-rule="nonzero" fill="black" fill-opacity="1">
                <use filter="url(#filter-42)" xlink:href="#path-41"></use>
            </g>
            <g id="Oval-Copy-24" fill-rule="nonzero" fill="black" fill-opacity="1">
                <use filter="url(#filter-44)" xlink:href="#path-43"></use>
            </g>
            <g id="Oval-Copy-25" fill-rule="nonzero" fill="black" fill-opacity="1">
                <use filter="url(#filter-46)" xlink:href="#path-45"></use>
            </g>
            <g id="Oval-Copy-26" fill-rule="nonzero" fill="black" fill-opacity="1">
                <use filter="url(#filter-48)" xlink:href="#path-47"></use>
            </g>
            <g id="Oval-Copy-2" fill-rule="nonzero" fill="black" fill-opacity="1">
                <use filter="url(#filter-50)" xlink:href="#path-49"></use>
            </g>
            <g id="Oval-Copy-3" fill-rule="nonzero" fill="black" fill-opacity="1">
                <use filter="url(#filter-52)" xlink:href="#path-51"></use>
            </g>
            <g id="Oval-Copy-4" fill-rule="nonzero" fill="black" fill-opacity="1">
                <use filter="url(#filter-54)" xlink:href="#path-53"></use>
            </g>
        </g>
    </g>
</svg>